<svg xmlns="http://www.w3.org/2000/svg" width="1600" height="1000" viewBox="0 0 1600 1000">
  <defs><linearGradient id="g" x2="1" y2="1"><stop stop-color="#8d7cff"/><stop offset="1" stop-color="#5b45d6"/></linearGradient><filter id="s"><feDropShadow dx="0" dy="16" stdDeviation="24" flood-color="#271c4b" flood-opacity=".15"/></filter></defs>
  <rect width="1600" height="1000" fill="#f5f4fa"/><rect x="260" y="70" width="1080" height="860" rx="24" fill="#fff" filter="url(#s)"/><rect x="260" y="70" width="1080" height="92" rx="24" fill="url(#g)"/><rect x="260" y="138" width="1080" height="24" fill="url(#g)"/><text x="316" y="128" font-family="Arial,'Microsoft YaHei'" font-size="27" font-weight="700" fill="#fff">Viber Bot 设置</text><text x="1170" y="126" font-family="Arial,'Microsoft YaHei'" font-size="17" fill="#eeeaff">Edit Info</text>
  <rect x="316" y="218" width="968" height="114" rx="14" fill="#faf9ff" stroke="#ded8ff"/><circle cx="370" cy="275" r="29" fill="#7360f2"/><text x="358" y="284" font-family="Arial" font-size="22" font-weight="700" fill="#fff">AI</text><text x="424" y="264" font-family="Arial,'Microsoft YaHei'" font-size="21" font-weight="700" fill="#30343b">AIWA Europe Support</text><text x="424" y="295" font-family="Arial,'Microsoft YaHei'" font-size="15" fill="#92979f">Bot 信息与连接凭证</text>
  <text x="316" y="402" font-family="Arial,'Microsoft YaHei'" font-size="18" font-weight="700" fill="#3a3f47">Your app key</text><text x="316" y="432" font-family="Arial,'Microsoft YaHei'" font-size="14" fill="#999ea6">复制完整密钥并妥善保管，请勿发送到群聊或截图中。</text><rect x="316" y="458" width="968" height="70" rx="10" fill="#f7f8fa" stroke="#dfe1e7"/><text x="342" y="501" font-family="Consolas,monospace" font-size="18" fill="#545a63">••••••••••••••••••••••••••••••••</text><rect x="1160" y="469" width="100" height="48" rx="8" fill="#6f40ff"/><text x="1192" y="500" font-family="Arial,'Microsoft YaHei'" font-size="16" fill="#fff">复制</text>
  <path d="M316 596h968" stroke="#eceef2"/><text x="316" y="650" font-family="Arial,'Microsoft YaHei'" font-size="18" font-weight="700" fill="#3a3f47">Bot URI</text><rect x="316" y="674" width="470" height="60" rx="10" fill="#f7f8fa" stroke="#dfe1e7"/><text x="340" y="712" font-family="Arial" font-size="17" fill="#626872">aiwa_europe</text><text x="824" y="650" font-family="Arial,'Microsoft YaHei'" font-size="18" font-weight="700" fill="#3a3f47">Bot 状态</text><rect x="824" y="674" width="460" height="60" rx="10" fill="#f0fbf5" stroke="#bfe9d3"/><circle cx="854" cy="704" r="6" fill="#128754"/><text x="874" y="711" font-family="Arial,'Microsoft YaHei'" font-size="17" fill="#128754">Active</text>
  <rect x="316" y="790" width="968" height="80" rx="12" fill="#f1edff"/><text x="346" y="823" font-family="Arial,'Microsoft YaHei'" font-size="16" font-weight="700" fill="#5a3bc0">下一步：粘贴到 aiwa</text><text x="346" y="850" font-family="Arial,'Microsoft YaHei'" font-size="14" fill="#7e72a6">返回 aiwa 的 Viber 连接配置，将密钥粘贴到 Authentication Token。</text>
  <text x="260" y="970" font-family="Arial,'Microsoft YaHei'" font-size="15" fill="#858a93">操作示意 · 在 Viber Bot 设置中复制 Your app key</text>
</svg>
